<svg width="73" height="72" viewBox="0 0 73 72" fill="none" xmlns="http://www.w3.org/2000/svg">
<circle cx="36.25" cy="36" r="36" fill="#E0F4FF"/>
<path d="M39.6897 25.9178C37.8712 25.9178 36.2252 26.6639 35.0318 27.8724C33.8384 29.0808 33.1037 30.7477 33.1037 32.5892C33.1037 34.4307 33.8405 36.0976 35.0318 37.306C36.2252 38.5145 37.8712 39.2585 39.6897 39.2585C41.5082 39.2585 43.1542 38.5124 44.3475 37.306C45.5409 36.0975 46.2777 34.4307 46.2777 32.5892C46.2777 30.7477 45.5409 29.0808 44.3475 27.8724C43.1542 26.6639 41.5082 25.9178 39.6897 25.9178ZM36.7183 29.5803C37.4774 28.8117 38.5287 28.3348 39.6897 28.3348C40.8486 28.3348 41.8999 28.8116 42.661 29.5803C43.42 30.349 43.8909 31.4136 43.8909 32.5893C43.8909 33.7628 43.4201 34.8274 42.661 35.5982C41.902 36.3668 40.8506 36.8437 39.6897 36.8437C38.5308 36.8437 37.4795 36.3669 36.7183 35.5982C35.9593 34.8275 35.4884 33.7649 35.4884 32.5893C35.4884 31.4157 35.9593 30.3511 36.7183 29.5803ZM42.7724 42.0516H36.6045C34.1204 42.0516 31.8574 43.069 30.2013 44.7152C28.5452 46.3574 27.502 48.6346 27.4533 51.15C27.4431 51.8139 27.9667 52.3626 28.6223 52.3709H28.6406V52.375H50.7364C51.396 52.375 51.9299 51.8345 51.9299 51.1665C51.9299 51.1192 51.9258 51.074 51.9217 51.0288C51.8446 48.5604 50.8055 46.3283 49.1778 44.7108C47.5216 43.0665 45.2566 42.0471 42.7745 42.0471L42.7724 42.0516ZM36.6045 44.4686H42.7724C44.6132 44.4686 46.2856 45.2209 47.5074 46.4314C48.4573 47.3748 49.1372 48.5977 49.4132 49.9603H29.9614C30.2354 48.5956 30.9173 47.3768 31.8672 46.4314C33.087 45.2168 34.7614 44.4686 36.6023 44.4686H36.6045ZM52.2811 16.7964C52.0599 16.1716 51.38 15.8468 50.7609 16.0709C50.144 16.2949 49.8233 16.9834 50.0445 17.6082L51.0776 20.5144C49.8639 19.8012 48.5771 19.199 47.2315 18.7222C44.9178 17.9021 42.4356 17.4603 39.8619 17.4603C33.6857 17.4603 28.0962 19.9944 24.0492 24.0924C20.0022 28.1906 17.5 33.853 17.5 40.1052C17.5 43.0401 18.0561 45.856 19.0709 48.4457C20.1222 51.1299 21.6606 53.5592 23.5766 55.6208C24.0271 56.1058 24.7801 56.1284 25.2591 55.6721C25.7381 55.2159 25.7604 54.4534 25.3098 53.9683C23.5928 52.1206 22.2168 49.9503 21.2791 47.5577C20.38 45.2599 19.8848 42.7464 19.8848 40.1033C19.8848 34.5171 22.1214 29.4593 25.7362 25.7983C29.3509 22.1379 34.3455 19.8729 39.8624 19.8729C42.1761 19.8729 44.3944 20.2675 46.4505 20.995C47.855 21.4903 49.1884 22.1419 50.4306 22.9311L46.82 24.1581C46.1969 24.3677 45.862 25.0521 46.071 25.6831C46.2781 26.312 46.9539 26.6532 47.577 26.4414L53.2783 24.5054C53.3736 24.4848 53.467 24.454 53.5563 24.4129L53.6882 24.3677V24.3656L53.7126 24.3574C54.3296 24.1334 54.6503 23.4448 54.4311 22.82L52.2898 16.7962L52.2811 16.7964Z" fill="#1C81B8" stroke="#1C81B8"/>
</svg>
