<svg width="73" height="72" viewBox="0 0 73 72" fill="none" xmlns="http://www.w3.org/2000/svg">
<circle cx="36.25" cy="36" r="36" fill="#E0F4FF"/>
<path d="M42.8328 35.5574C42.1916 32.7756 40.1825 30.5838 37.5322 29.6143C39.1138 28.1812 40.1397 26.1159 40.1397 23.8398C40.1397 19.4984 36.549 16 32.1889 16C27.7859 16 24.238 19.5406 24.238 23.8398C24.238 26.1159 25.2639 28.1812 26.8455 29.6143C23.9815 30.6681 21.8014 33.1971 21.4167 36.3583L20.7755 41.5848C20.5618 43.2287 21.7159 44.7882 23.3403 45.1254C26.1188 45.6733 29.0256 45.9684 31.9751 45.9684C32.1034 51.5321 36.72 56 42.3626 56C48.0906 56 52.75 51.4057 52.75 45.7576C52.7073 40.2782 48.3043 35.8103 42.8328 35.5574ZM32.1889 18.529C35.1384 18.529 37.5322 20.8894 37.5322 23.7977C37.5322 26.706 35.1384 29.0664 32.1889 29.0664C29.2393 29.0664 26.8455 26.706 26.8455 23.7977C26.8028 20.8894 29.2393 18.529 32.1889 18.529ZM23.8105 42.6386C23.5113 42.5964 23.2548 42.2592 23.2975 41.922L23.9387 36.6955C24.2807 33.8293 26.76 31.6797 29.6668 31.6797H34.6254C37.233 31.6797 39.4558 33.3656 40.1397 35.7682C36.207 36.569 33.1293 39.6038 32.1889 43.4394C29.3676 43.3973 26.5035 43.1444 23.8105 42.6386ZM42.3198 53.4289C38.0451 53.4289 34.5399 49.9726 34.5399 45.7576C34.5399 41.5427 38.0451 38.0864 42.3198 38.0864C46.5945 38.0864 50.0997 41.5427 50.0997 45.7576C50.0997 49.9726 46.6372 53.4289 42.3198 53.4289Z" fill="#1C81B8" stroke="#1C81B8"/>
<path d="M45.9961 44.4924H43.645V41.2469C43.645 40.5304 43.0465 39.9824 42.3626 39.9824C41.6787 39.9824 41.0802 40.5725 41.0802 41.2469V45.7991C41.0802 46.5156 41.6787 47.0636 42.3626 47.0636H46.0388C46.7655 47.0636 47.3212 46.4735 47.3212 45.7991C47.3212 45.1247 46.7228 44.4924 45.9961 44.4924Z" fill="#1C81B8"/>
</svg>
