<svg width="35" height="39" viewBox="0 0 35 39" fill="none" xmlns="http://www.w3.org/2000/svg">
<path d="M3.51263 37.6299H31.1743C32.6992 37.6299 33.9405 36.3886 33.9405 34.8637V33.9422C33.9405 26.3629 28.8282 19.968 21.8747 17.9901C24.6702 16.4047 26.5652 13.4053 26.5652 9.96997C26.5652 4.88553 22.428 0.75 17.3452 0.75C12.2608 0.75 8.12527 4.88717 8.12527 9.96997C8.12527 13.4069 10.0183 16.4065 12.8158 17.9901C5.86232 19.9696 0.75 26.3629 0.75 33.9422V34.8637C0.75 36.3886 1.99132 37.6299 3.51617 37.6299H3.51263ZM9.96643 9.9682C9.96643 5.90021 13.2755 2.59116 17.3435 2.59116C21.4115 2.59116 24.7205 5.90021 24.7205 9.9682C24.7205 14.0362 21.4115 17.3452 17.3435 17.3452C13.2755 17.3452 9.96643 14.0362 9.96643 9.9682ZM2.59116 33.9405C2.59116 25.8062 9.20916 19.1882 17.3435 19.1882C25.4778 19.1882 32.0958 25.8062 32.0958 33.9405V34.8619C32.0958 35.3702 31.6826 35.7834 31.1743 35.7834L3.51263 35.7851C3.00436 35.7851 2.59116 35.3719 2.59116 34.8637V33.9405Z" fill="#1C81B8" stroke="#1C81B8" stroke-width="1.5"/>
</svg>
