<svg width="63" height="41" viewBox="0 0 63 41" fill="none" xmlns="http://www.w3.org/2000/svg">
<path d="M25.7767 25.2366C26.1938 24.7901 26.4037 24.2381 26.3768 23.6699C26.3606 22.5144 26.1884 21.4185 25.8655 20.4092C25.8439 20.3389 25.8143 20.2739 25.7767 20.2117C25.2412 19.2971 23.788 17.8819 17.4349 16.1041C17.3595 15.9661 17.2519 15.709 17.1577 15.2517C18.5812 14.1071 19.4154 12.3807 19.4154 10.5108V6.43569C19.4154 3.08029 16.7002 0.350006 13.3633 0.350006C10.0265 0.350006 7.31128 3.08029 7.31128 6.43569V10.5108C7.31128 12.3725 8.14814 14.1016 9.57711 15.2544C9.48831 15.7117 9.38336 15.9687 9.30533 16.1041C2.95187 17.8819 1.49879 19.2971 0.963524 20.2117C0.92585 20.2739 0.896249 20.3416 0.874719 20.4119C0.557181 21.3996 0.382271 22.4928 0.349976 23.6861C0.349976 24.2706 0.562561 24.8064 0.985052 25.261C1.41023 25.6885 1.94571 25.9131 2.53506 25.9131H24.2056C24.7949 25.9131 25.3304 25.6858 25.7771 25.2393L25.7767 25.2366ZM2.39978 23.8809C2.33251 23.8079 2.31905 23.7565 2.31905 23.7105C2.34327 22.7823 2.47513 21.9164 2.71193 21.1398C3.06983 20.6447 4.49334 19.4784 10.1361 17.9279C10.2895 17.8873 10.4294 17.8088 10.5452 17.7006C11.1076 17.1784 11.4601 16.2692 11.6216 14.9216C11.6673 14.5428 11.4924 14.1748 11.1748 13.9691C9.99078 13.2087 9.28308 11.9154 9.28308 10.5082V6.4331C9.28308 4.17095 11.1157 2.32817 13.3653 2.32817C15.615 2.32817 17.4476 4.17095 17.4476 6.4331V10.5082C17.4476 11.9208 16.7425 13.2141 15.5612 13.9664C15.2382 14.1721 15.0606 14.5509 15.1118 14.9324C15.2921 16.2963 15.6392 17.1757 16.2016 17.6979C16.3173 17.8061 16.4572 17.8846 16.6106 17.9252C22.2536 19.4757 23.6773 20.6393 24.0348 21.1371C24.2743 21.9246 24.4008 22.785 24.4143 23.724C24.4169 23.7646 24.417 23.8025 24.3685 23.8539C24.3012 23.9216 24.2528 23.927 24.2097 23.927L2.53373 23.9324C2.49068 23.9324 2.44224 23.927 2.39649 23.881L2.39978 23.8809ZM51.1741 1.89537C45.0117 1.89537 39.9982 6.9365 39.9982 13.1334C39.9982 19.33 45.0114 24.3714 51.1741 24.3714C57.3364 24.3714 62.35 19.3302 62.35 13.1334C62.35 6.93678 57.3367 1.89537 51.1741 1.89537ZM51.1741 22.3902C46.0962 22.3902 41.9684 18.2366 41.9684 13.1334C41.9684 8.02726 46.0991 3.87655 51.1741 3.87655C56.2493 3.87655 60.3797 8.03017 60.3797 13.1334C60.3797 18.2395 56.2491 22.3902 51.1741 22.3902ZM52.2662 29.3396C52.4626 29.8483 52.2097 30.4219 51.7038 30.6195C51.588 30.6655 51.4669 30.6872 51.3486 30.6872C50.953 30.6872 50.5816 30.4463 50.431 30.054L50.0973 29.1827C46.7739 35.9529 39.8934 40.35 32.2722 40.35C24.4794 40.35 17.359 35.7093 14.135 28.5308C13.9116 28.0329 14.1323 27.4457 14.6274 27.2212C15.1199 26.9966 15.7065 27.2184 15.9299 27.7163C18.8362 34.189 25.2513 38.3725 32.2725 38.3725C39.1399 38.3725 45.3346 34.3974 48.3271 28.2927L47.3449 28.6715C46.839 28.8636 46.2685 28.612 46.0747 28.1006C45.8809 27.5891 46.1339 27.0182 46.6425 26.8233L49.7829 25.6165C49.7963 25.6111 49.8098 25.6111 49.8233 25.6056C49.8609 25.5921 49.8959 25.584 49.9336 25.5759C49.9605 25.5705 49.9874 25.5651 50.0143 25.5623C50.0493 25.5569 50.0843 25.5569 50.1193 25.5542C50.1489 25.5542 50.1785 25.5542 50.2081 25.5569C50.2404 25.5596 50.2727 25.5651 50.3049 25.5705C50.3372 25.5759 50.3695 25.584 50.4018 25.5948C50.418 25.6002 50.4368 25.6002 50.4529 25.6056C50.4664 25.6111 50.4772 25.6192 50.4906 25.6246C50.5229 25.6381 50.5525 25.6516 50.5821 25.6679C50.6117 25.6814 50.6386 25.6976 50.6655 25.7139C50.6924 25.7301 50.7167 25.7518 50.7436 25.7707C50.7678 25.7896 50.792 25.8113 50.8162 25.8329C50.8404 25.8546 50.8593 25.8789 50.8808 25.9033C50.9023 25.9276 50.9212 25.952 50.94 25.9764C50.9588 26.0007 50.9723 26.0305 50.9884 26.0575C51.0046 26.0873 51.0207 26.1171 51.0342 26.1495C51.0396 26.1631 51.0476 26.1712 51.053 26.1847L52.2693 29.3426L52.2662 29.3396Z" fill="#1C81B8" stroke="#1C81B8" stroke-width="0.7"/>
</svg>
