<svg width="22" height="22" viewBox="0 0 22 22" fill="none" xmlns="http://www.w3.org/2000/svg">
<circle cx="11" cy="11" r="9.5" fill="#E0F4FF" stroke="#1C81B8" stroke-width="3"/>
<path d="M13.8581 8.19585L9.66758 12.3912L8.14195 10.8596C8.07983 10.7975 8.00609 10.7482 7.92493 10.7146C7.84377 10.681 7.75678 10.6637 7.66894 10.6637C7.58109 10.6637 7.49411 10.681 7.41295 10.7146C7.33179 10.7482 7.25804 10.7975 7.19593 10.8596C7.13381 10.9217 7.08454 10.9954 7.05092 11.0765C7.0173 11.1576 7 11.2446 7 11.3324C7 11.4202 7.0173 11.5072 7.05092 11.5883C7.08454 11.6694 7.13381 11.7431 7.19593 11.8052L9.19456 13.803C9.2565 13.8654 9.33018 13.915 9.41137 13.9488C9.49255 13.9826 9.57963 14 9.66758 14C9.75552 14 9.8426 13.9826 9.92378 13.9488C10.005 13.915 10.0787 13.8654 10.1406 13.803L14.8041 9.14147C14.8662 9.07938 14.9155 9.00567 14.9491 8.92454C14.9827 8.84342 15 8.75647 15 8.66866C15 8.58085 14.9827 8.4939 14.9491 8.41277C14.9155 8.33165 14.8662 8.25794 14.8041 8.19585C14.742 8.13375 14.6682 8.0845 14.5871 8.0509C14.5059 8.01729 14.4189 8 14.3311 8C14.2432 8 14.1562 8.01729 14.0751 8.0509C13.9939 8.0845 13.9202 8.13375 13.8581 8.19585Z" fill="#1C81B8" stroke="#1C81B8" stroke-width="2"/>
</svg>
